Simulation
nRows=28
nColumns=15
endheader
time  TH_x TH_y TH_z SC_y  SC_z  SC_x  AC_y  AC_z  AC_x  GH_y  GH_z  GH_yy  EL_x  PS_y
0.0  0.000000  0.000000  0.000000  -0.009077679133186158  18.202330463831874  7.080964946129282  48.57541872028092  2.8875619861626363  33.22283578425947  -0.0092217401232978  50.84208679881333  -42.47315897028488  0.004467215734951281  120.000000
0.031  0.000000  0.000000  0.000000  -20.82637803059838  14.66331675041669  2.8951888516226303  70.80547525178609  -10.86170691859435  5.2991101722286595  10.8862388923685  55.750624581277705  5.093398761665412  0.008285012589892617  120.000000
0.062  0.000000  0.000000  0.000000  -49.38200573074358  -14.843354557453907  23.52257172930151  51.472717393111566  -9.129368792739276  6.38655988687897  17.957173302330702  59.67006543085744  5.368309200741051  20.258166225906137  120.000000
0.093  0.000000  0.000000  0.000000  -38.70695715393516  32.53302662695168  -2.3208822939814597  56.30332178986797  23.353094647301575  6.297397473290984  37.94311279207367  28.185462009947507  -21.097294724699  11.21703299955437  120.000000
0.124  0.000000  0.000000  0.000000  15.613806767886668  11.637902270988551  -46.11482971621809  28.756910708239257  2.43561391369002  56.931306370670754  -5.495350540447303  58.694703124197105  33.50309184182447  2.499469201186961  120.000000
0.155  0.000000  0.000000  0.000000  3.407986327837085  -12.230244119945949  -19.359357935252607  42.32175896765951  6.153490225188552  48.3742020682671  -36.69413284421835  63.14232254790146  22.995407597373912  5.574383839980774  120.000000
0.186  0.000000  0.000000  0.000000  -26.678128898805497  2.580317474396573  -8.966034393950332  45.732685504160436  5.190012106796033  41.66010504212997  -44.29616956635106  47.37731657824816  21.56035826524709  27.58699902863783  120.000000
0.217  0.000000  0.000000  0.000000  -41.83939476461726  1.354562586220032  -15.865500492024985  43.913316535995044  6.219345885702827  46.737170081393316  -20.578129736255985  61.22600536270227  18.006203461811417  39.99836898954784  120.000000
0.248  0.000000  0.000000  0.000000  -39.08190343117324  -5.710620062224709  -8.291341135866157  48.810872843542775  4.963266504908953  38.64768838116842  -9.63162355030585  65.93888245639626  18.331449389530917  17.81299675287012  120.000000
0.279  0.000000  0.000000  0.000000  -22.916188530161037  -7.659933618914102  -4.488608579576057  49.589914234887246  5.07171663721598  38.82210435135944  -8.649247202078497  66.61332655955856  3.2377341441127276  0.0034158813973511394  120.000000
0.31  0.000000  0.000000  0.000000  -21.911489653301853  -8.803795040577148  -4.10372084867267  48.907890253824434  4.269491310096169  37.08842794061771  0.8140744603254677  65.81169016096383  -15.716929673360898  5.529158974728414  120.000000
0.34099999999999997  0.000000  0.000000  0.000000  -30.470575113200304  -2.6194095013255025  -7.873334577609189  47.99702572474723  7.087003850132911  41.545167673756275  17.10679000289406  61.74314622213915  -23.13063672998913  0.0038732951361949057  120.000000
0.372  0.000000  0.000000  0.000000  -35.819102491166255  -5.021374131742269  -6.888890496169381  47.93215051767443  5.056619376435882  39.52705195449604  22.78524598995775  66.18782777141277  -28.6353270351792  0.07412246479100248  120.000000
0.403  0.000000  0.000000  0.000000  -27.425566264340873  -10.572433365400489  -4.50129373038456  52.16378965061207  7.306786163461722  36.22245668805854  -2.686098274325679  62.47643083642269  -28.55290651765342  25.448866149102525  120.000000
0.434  0.000000  0.000000  0.000000  -38.19585182283249  -4.1198821622233295  -9.299082821766723  46.528126351308  5.275471226163249  41.249927723787316  -19.016639875866048  55.417420963436015  -15.031472482478764  39.98470856353276  120.000000
0.46499999999999997  0.000000  0.000000  0.000000  -35.10362295066807  9.211750837938007  -11.165276090628101  44.32738322028938  6.070071011129139  45.79161390114695  -24.585073790169723  45.56050429186261  8.332414911162797  26.87084877741007  120.000000
0.496  0.000000  0.000000  0.000000  -17.879825250494502  -1.7886135507453662  -28.85001132525141  36.23161375680679  4.614683975468934  51.217105511646814  -45.461274091683  71.75157603515439  59.61107600762605  0.0012051968328054628  120.000000
0.527  0.000000  0.000000  0.000000  4.442100904776991  -0.6509139274873558  1.4059632838798795  53.86371535297554  5.824301889038047  37.75576106799231  -60.656287240261605  55.21325592867256  93.09720766215544  6.166788657584417  120.000000
0.558  0.000000  0.000000  0.000000  -20.529874517917197  25.572772214093753  39.417949535267255  62.150260966784984  -6.513119698253126  -1.7913216140207762  -73.91502833053644  29.999184425643946  106.48690490871788  34.941125509250554  120.000000
0.589  0.000000  0.000000  0.000000  -51.99922949689224  15.818770899616338  11.914457288439346  33.94144093904307  5.829377660001866  11.893242372421529  30.390202283641887  36.63210726041772  18.903950176217332  39.97676653858277  120.000000
0.62  0.000000  0.000000  0.000000  -50.071252167895004  15.984650497879255  -3.5775106426046275  56.240684318859195  31.217730822119076  21.723232146238022  52.44206364369276  42.89742018073704  -38.02396410882455  25.80136424789301  120.000000
0.651  0.000000  0.000000  0.000000  -19.58676552459327  19.82091498415549  -0.7181998097887935  55.600386661450884  1.0466339881521614  26.227930476207632  38.15746939203919  46.67408982299951  -41.51586651947145  16.053662796785833  120.000000
0.6819999999999999  0.000000  0.000000  0.000000  -3.458724425837298  19.00763128409693  -2.1989367442502576  48.46354425074769  -7.443848345150284  12.117449173824381  48.82826705460592  60.201793809219325  -62.696017537767545  10.944319195234028  120.000000
0.713  0.000000  0.000000  0.000000  -15.627427402276053  19.991514418612628  10.353630625803254  49.6221092812342  6.924666777466847  16.46325899452748  57.72963401059928  30.164770711449272  -75.19040233538193  3.3550409660401526  120.000000
0.744  0.000000  0.000000  0.000000  -13.353894525774127  27.111828152765582  12.751200583712082  45.49360906719299  8.934877545190385  28.944276927878057  100.79238201496517  18.512902854590063  -109.9063450171101  0.11202379606060127  120.000000
0.775  0.000000  0.000000  0.000000  -14.341906133759121  28.883794128293  4.487824119518421  50.11220986512992  0.067364248368723  15.890171502573319  81.66224073032674  34.462426106352595  -91.75493599783849  4.28933108367675  120.000000
0.806  0.000000  0.000000  0.000000  -31.863337433858884  3.9243098275079666  -6.41725403263519  51.78964821362864  -3.754951528195444  12.424163199724854  66.14866865627972  40.3588771290897  -72.50610231631262  11.97805939370425  120.000000
0.837  0.000000  0.000000  0.000000  -38.371576360109046  -7.108190898231899  -8.609389738243525  58.8601302830057  13.054209687081284  6.132631675321325  67.6521067092545  34.73230113675392  -71.41957044282692  14.226749277300845  120.000000
